# Blender 4.5.2 LTS
# www.blender.org
o station
v 160.000000 0.000012 160.000000
v 0.000000 160.000015 159.999985
v -160.000000 0.000012 160.000000
v 0.000000 -159.999985 160.000015
v 160.000000 -160.000000 0.000012
v 160.000000 160.000000 -0.000012
v -160.000000 160.000000 -0.000012
v -160.000000 -160.000000 0.000012
v 160.000000 -0.000012 -160.000000
v 0.000000 159.999985 -160.000015
v -160.000000 -0.000012 -160.000000
v 0.000000 -160.000015 -159.999985
v 10.000000 -29.999989 160.000000
v 10.000000 30.000011 160.000000
v -10.000000 30.000011 160.000000
v -10.000000 -29.999989 160.000000
vn -0.0000 -0.0000 1.0000
vn -0.0000 -0.0000 -1.0000
vn -0.0000 -1.0000 -0.0000
vn -1.0000 -0.0000 -0.0000
vn -0.0000 1.0000 -0.0000
vn 1.0000 -0.0000 -0.0000
vn -0.5774 0.5774 0.5774
vn -0.5774 0.5774 -0.5774
vn 0.5774 0.5774 0.5774
vn 0.5774 0.5774 -0.5774
vn 0.5774 -0.5774 0.5774
vn 0.5774 -0.5774 -0.5774
vn -0.5774 -0.5774 0.5774
vn -0.5774 -0.5774 -0.5774
s 0
f 15//1 13//1 14//1
f 3//1 1//1 2//1
f 9//2 11//2 10//2
f 8//3 12//3 4//3
f 7//4 11//4 3//4
f 6//5 10//5 2//5
f 5//6 9//6 1//6
f 4//3 12//3 5//3
f 3//4 11//4 8//4
f 2//5 10//5 7//5
f 3//7 2//7 7//7
f 10//8 11//8 7//8
f 2//9 1//9 6//9
f 9//6 6//6 1//6
f 9//10 10//10 6//10
f 1//11 4//11 5//11
f 12//12 9//12 5//12
f 4//13 3//13 8//13
f 11//14 12//14 8//14
f 15//1 16//1 13//1
f 3//1 4//1 1//1
f 9//2 12//2 11//2
