# Blender 4.5.2 LTS
# www.blender.org
mtllib cube.mtl
o cube
v -70.000000 70.000008 69.999992
v 70.000000 70.000008 69.999992
v 70.000000 -69.999992 70.000008
v -70.000000 -69.999992 70.000008
v -70.000000 69.999992 -70.000008
v 70.000000 69.999992 -70.000008
v 70.000000 -70.000008 -69.999992
v -70.000000 -70.000008 -69.999992
vn 1.0000 -0.0000 -0.0000
vn -0.0000 -0.0000 1.0000
vn -1.0000 -0.0000 -0.0000
vn -0.0000 -0.0000 -1.0000
vn -0.0000 1.0000 -0.0000
vn -0.0000 -1.0000 -0.0000
s 0
usemtl Red
f 2//5 6//5 5//5
f 2//5 5//5 1//5
usemtl Green
f 2//1 3//1 7//1
f 2//1 7//1 6//1
usemtl Blue
f 4//3 1//3 5//3
f 4//3 5//3 8//3
usemtl Yellow
f 2//2 1//2 4//2
f 2//2 4//2 3//2
usemtl Magenta
f 7//6 3//6 4//6
f 7//6 4//6 8//6
usemtl Cyan
f 6//4 7//4 8//4
f 6//4 8//4 5//4
